<svg xmlns="http://www.w3.org/2000/svg" viewBox="0 0 512 512">
  <defs>
    <linearGradient id="bg" x1="0" y1="0" x2="1" y2="1">
      <stop offset="0%" stop-color="#183d65"/>
      <stop offset="100%" stop-color="#1f8a70"/>
    </linearGradient>
    <linearGradient id="accent" x1="0" y1="0" x2="1" y2="1">
      <stop offset="0%" stop-color="#ff9a58"/>
      <stop offset="100%" stop-color="#ff6a4a"/>
    </linearGradient>
  </defs>
  <rect width="512" height="512" rx="112" fill="url(#bg)"/>
  <rect x="96" y="116" width="320" height="280" rx="44" fill="rgba(255,255,255,0.94)"/>
  <rect x="96" y="116" width="320" height="84" rx="44" fill="url(#accent)"/>
  <circle cx="146" cy="154" r="14" fill="#fff" opacity="0.92"/>
  <circle cx="212" cy="154" r="14" fill="#fff" opacity="0.92"/>
  <path d="M150 260h212a22 22 0 0 1 22 22v94a22 22 0 0 1-22 22H150a22 22 0 0 1-22-22v-94a22 22 0 0 1 22-22z" fill="#173b65" opacity="0.08"/>
  <text x="256" y="306" text-anchor="middle" font-family="Inter, Segoe UI, Arial, sans-serif" font-size="64" font-weight="800" fill="#173b65">DOW</text>
  <text x="256" y="352" text-anchor="middle" font-family="Inter, Segoe UI, Arial, sans-serif" font-size="32" fill="#5a6473">Trainer</text>
</svg>
